<svg width="844" height="322" viewBox="0 0 844 322" fill="none" xmlns="http://www.w3.org/2000/svg">
<path d="M84.4543 67V33.624H71.3503V27.8H104.278V33.624H91.1743V67H84.4543ZM113.501 67V26.848L119.829 25.728V43.536C120.912 41.856 122.2 40.6053 123.693 39.784C125.187 38.9253 126.848 38.496 128.677 38.496C130.619 38.496 132.317 38.9253 133.773 39.784C135.229 40.6053 136.368 41.7627 137.189 43.256C138.048 44.7493 138.477 46.504 138.477 48.52V67H132.093V50.312C132.093 48.2587 131.533 46.6347 130.413 45.44C129.293 44.208 127.8 43.592 125.933 43.592C124.664 43.592 123.507 43.8907 122.461 44.488C121.453 45.048 120.576 45.888 119.829 47.008V67H113.501ZM163.063 67.56C160.375 67.56 157.948 66.9253 155.783 65.656C153.618 64.3493 151.9 62.6133 150.631 60.448C149.362 58.2453 148.727 55.7627 148.727 53C148.727 50.2373 149.324 47.7733 150.519 45.608C151.714 43.4427 153.338 41.7253 155.391 40.456C157.482 39.1493 159.796 38.496 162.335 38.496C164.948 38.496 167.244 39.1307 169.223 40.4C171.239 41.6693 172.807 43.3867 173.927 45.552C175.084 47.7173 175.663 50.2 175.663 53V54.512H154.943C155.167 56.0427 155.652 57.4053 156.399 58.6C157.183 59.7573 158.172 60.672 159.367 61.344C160.599 62.016 161.924 62.352 163.343 62.352C164.65 62.352 165.882 62.128 167.039 61.68C168.234 61.1947 169.223 60.5413 170.007 59.72L174.151 63.472C172.434 64.8907 170.679 65.936 168.887 66.608C167.132 67.2427 165.191 67.56 163.063 67.56ZM154.999 50.592H169.671C169.447 49.248 168.98 48.0533 168.271 47.008C167.599 45.9627 166.74 45.1413 165.695 44.544C164.687 43.9467 163.567 43.648 162.335 43.648C161.103 43.648 159.964 43.9467 158.919 44.544C157.911 45.104 157.071 45.9067 156.399 46.952C155.727 47.9973 155.26 49.2107 154.999 50.592ZM406.376 67V38.944H412.704V67H406.376ZM409.568 33.232C408.485 33.232 407.552 32.8587 406.768 32.112C406.021 31.328 405.648 30.4133 405.648 29.368C405.648 28.2853 406.021 27.3707 406.768 26.624C407.552 25.84 408.485 25.448 409.568 25.448C410.65 25.448 411.565 25.84 412.312 26.624C413.096 27.3707 413.488 28.2667 413.488 29.312C413.488 30.3947 413.096 31.328 412.312 32.112C411.565 32.8587 410.65 33.232 409.568 33.232ZM424.461 67V38.944H430.789V43.536C431.872 41.856 433.16 40.6053 434.653 39.784C436.146 38.9253 437.808 38.496 439.637 38.496C441.578 38.496 443.277 38.9253 444.733 39.784C446.189 40.6053 447.328 41.7627 448.149 43.256C449.008 44.7493 449.437 46.504 449.437 48.52V67H443.053V50.312C443.053 48.2587 442.493 46.6347 441.373 45.44C440.253 44.208 438.76 43.592 436.893 43.592C435.624 43.592 434.466 43.8907 433.421 44.488C432.413 45.048 431.536 45.888 430.789 47.008V67H424.461ZM490.521 67.56C487.833 67.56 485.406 66.9253 483.241 65.656C481.075 64.3493 479.358 62.6133 478.089 60.448C476.819 58.2453 476.185 55.7627 476.185 53C476.185 50.2373 476.782 47.7733 477.977 45.608C479.171 43.4427 480.795 41.7253 482.849 40.456C484.939 39.1493 487.254 38.496 489.793 38.496C492.406 38.496 494.702 39.1307 496.681 40.4C498.697 41.6693 500.265 43.3867 501.385 45.552C502.542 47.7173 503.121 50.2 503.121 53V54.512H482.401C482.625 56.0427 483.11 57.4053 483.857 58.6C484.641 59.7573 485.63 60.672 486.825 61.344C488.057 62.016 489.382 62.352 490.801 62.352C492.107 62.352 493.339 62.128 494.497 61.68C495.691 61.1947 496.681 60.5413 497.465 59.72L501.609 63.472C499.891 64.8907 498.137 65.936 496.345 66.608C494.59 67.2427 492.649 67.56 490.521 67.56ZM482.457 50.592H497.129C496.905 49.248 496.438 48.0533 495.729 47.008C495.057 45.9627 494.198 45.1413 493.153 44.544C492.145 43.9467 491.025 43.648 489.793 43.648C488.561 43.648 487.422 43.9467 486.377 44.544C485.369 45.104 484.529 45.9067 483.857 46.952C483.185 47.9973 482.718 49.2107 482.457 50.592ZM520.794 67L509.37 38.944H516.258L524.098 59.328L531.882 38.944H538.49L526.954 67H520.794ZM559.173 67.56C556.485 67.56 554.059 66.9253 551.893 65.656C549.728 64.3493 548.011 62.6133 546.741 60.448C545.472 58.2453 544.837 55.7627 544.837 53C544.837 50.2373 545.435 47.7733 546.629 45.608C547.824 43.4427 549.448 41.7253 551.501 40.456C553.592 39.1493 555.907 38.496 558.445 38.496C561.059 38.496 563.355 39.1307 565.333 40.4C567.349 41.6693 568.917 43.3867 570.037 45.552C571.195 47.7173 571.773 50.2 571.773 53V54.512H551.053C551.277 56.0427 551.763 57.4053 552.509 58.6C553.293 59.7573 554.283 60.672 555.477 61.344C556.709 62.016 558.035 62.352 559.453 62.352C560.76 62.352 561.992 62.128 563.149 61.68C564.344 61.1947 565.333 60.5413 566.117 59.72L570.261 63.472C568.544 64.8907 566.789 65.936 564.997 66.608C563.243 67.2427 561.301 67.56 559.173 67.56ZM551.109 50.592H565.781C565.557 49.248 565.091 48.0533 564.381 47.008C563.709 45.9627 562.851 45.1413 561.805 44.544C560.797 43.9467 559.677 43.648 558.445 43.648C557.213 43.648 556.075 43.9467 555.029 44.544C554.021 45.104 553.181 45.9067 552.509 46.952C551.837 47.9973 551.371 49.2107 551.109 50.592ZM582.147 67V38.944H588.475V44.992C589.296 42.864 590.36 41.24 591.667 40.12C592.974 39 594.486 38.44 596.203 38.44C596.726 38.4773 597.192 38.5333 597.603 38.608C598.014 38.6453 598.462 38.776 598.947 39V44.544C598.462 44.32 597.902 44.152 597.267 44.04C596.67 43.928 596.072 43.872 595.475 43.872C593.944 43.872 592.563 44.2827 591.331 45.104C590.136 45.9253 589.184 47.064 588.475 48.52V67H582.147ZM610.614 79.264C609.606 79.264 608.561 79.1333 607.478 78.872V73.384C607.851 73.4587 608.243 73.5147 608.654 73.552C609.102 73.5893 609.531 73.608 609.942 73.608C611.062 73.608 611.977 73.3467 612.686 72.824C613.395 72.3013 613.993 71.4987 614.478 70.416L615.766 67.28L605.182 38.944H612.182L619.35 59.72L627.134 38.944H634.078L620.638 71.872C619.929 73.664 619.126 75.1013 618.23 76.184C617.334 77.2667 616.27 78.0507 615.038 78.536C613.843 79.0213 612.369 79.264 610.614 79.264ZM659.094 67V27.016L665.422 25.952V42.696C666.43 41.4267 667.662 40.456 669.118 39.784C670.612 39.0747 672.254 38.72 674.046 38.72C676.436 38.72 678.582 39.3547 680.486 40.624C682.39 41.8933 683.902 43.6107 685.022 45.776C686.142 47.9413 686.702 50.3493 686.702 53C686.702 55.6507 686.124 58.0587 684.966 60.224C683.809 62.3893 682.241 64.1067 680.262 65.376C678.284 66.6453 676.081 67.28 673.654 67.28C671.974 67.28 670.425 66.944 669.006 66.272C667.588 65.6 666.356 64.648 665.31 63.416V67H659.094ZM672.142 62.016C673.748 62.016 675.166 61.624 676.398 60.84C677.668 60.056 678.657 58.992 679.366 57.648C680.113 56.2667 680.486 54.7173 680.486 53C680.486 51.2827 680.113 49.752 679.366 48.408C678.657 47.064 677.668 46 676.398 45.216C675.166 44.432 673.748 44.04 672.142 44.04C670.761 44.04 669.492 44.32 668.334 44.88C667.177 45.4027 666.206 46.168 665.422 47.176V58.88C666.244 59.8507 667.233 60.616 668.39 61.176C669.548 61.736 670.798 62.016 672.142 62.016ZM697.193 67V38.944H703.521V67H697.193ZM700.385 33.232C699.302 33.232 698.369 32.8587 697.585 32.112C696.838 31.328 696.465 30.4133 696.465 29.368C696.465 28.2853 696.838 27.3707 697.585 26.624C698.369 25.84 699.302 25.448 700.385 25.448C701.467 25.448 702.382 25.84 703.129 26.624C703.913 27.3707 704.305 28.2667 704.305 29.312C704.305 30.3947 703.913 31.328 703.129 32.112C702.382 32.8587 701.467 33.232 700.385 33.232ZM727.374 67.56C724.537 67.56 722.39 66.9067 720.934 65.6C719.478 64.256 718.75 62.296 718.75 59.72V43.984H713.15V38.944H718.75V31.216L725.078 29.872V38.944H732.862V43.984H725.078V58.32C725.078 59.7013 725.377 60.6907 725.974 61.288C726.571 61.848 727.579 62.128 728.998 62.128C729.633 62.128 730.211 62.0907 730.734 62.016C731.294 61.904 731.985 61.7173 732.806 61.456V66.776C732.022 67.0373 731.126 67.224 730.118 67.336C729.147 67.4853 728.233 67.56 727.374 67.56ZM754.996 67.56C752.308 67.56 749.881 66.9253 747.716 65.656C745.551 64.3493 743.833 62.6133 742.564 60.448C741.295 58.2453 740.66 55.7627 740.66 53C740.66 50.2373 741.257 47.7733 742.452 45.608C743.647 43.4427 745.271 41.7253 747.324 40.456C749.415 39.1493 751.729 38.496 754.268 38.496C756.881 38.496 759.177 39.1307 761.156 40.4C763.172 41.6693 764.74 43.3867 765.86 45.552C767.017 47.7173 767.596 50.2 767.596 53V54.512H746.876C747.1 56.0427 747.585 57.4053 748.332 58.6C749.116 59.7573 750.105 60.672 751.3 61.344C752.532 62.016 753.857 62.352 755.276 62.352C756.583 62.352 757.815 62.128 758.972 61.68C760.167 61.1947 761.156 60.5413 761.94 59.72L766.084 63.472C764.367 64.8907 762.612 65.936 760.82 66.608C759.065 67.2427 757.124 67.56 754.996 67.56ZM746.932 50.592H761.604C761.38 49.248 760.913 48.0533 760.204 47.008C759.532 45.9627 758.673 45.1413 757.628 44.544C756.62 43.9467 755.5 43.648 754.268 43.648C753.036 43.648 751.897 43.9467 750.852 44.544C749.844 45.104 749.004 45.9067 748.332 46.952C747.66 47.9973 747.193 49.2107 746.932 50.592Z" fill="#FBFBFB"/>
<path d="M218.33 36.5391H203.263V23.332H245.81V26.668L228.966 54.5039H245.81V67H201.595V64.4844L218.33 36.5391ZM273.382 67H256.375V23.332H273.382V67ZM283.974 23.332H288.404L312.248 40.3398V23.332H327.642V67H321.763L299.314 51.9883V67H283.974V23.332ZM379.195 66.4531C379.195 66.4531 378.675 66.5352 377.636 66.6992C376.616 66.8633 375.312 67.0456 373.726 67.2461C372.14 67.4648 370.481 67.6562 368.75 67.8203C367.018 67.9844 365.441 68.0664 364.019 68.0664C360.118 68.0664 356.5 67.5286 353.164 66.4531C349.846 65.3776 346.948 63.8281 344.468 61.8047C342.008 59.7812 340.093 57.3477 338.726 54.5039C337.359 51.6602 336.675 48.4701 336.675 44.9336C336.675 41.3971 337.414 38.2253 338.89 35.418C340.367 32.5924 342.436 30.1953 345.097 28.2266C347.759 26.2396 350.885 24.7266 354.476 23.6875C358.086 22.6302 362.014 22.1016 366.261 22.1016C368.668 22.1016 370.664 22.2383 372.25 22.5117C373.836 22.7669 375.021 23.0312 375.804 23.3047C376.606 23.5781 377.026 23.7148 377.062 23.7148V36.9219C374.383 36.1016 371.903 35.6914 369.625 35.6914C366.708 35.6914 364.284 36.2383 362.351 37.332C360.437 38.4076 359.006 39.7747 358.058 41.4336C357.11 43.0742 356.636 44.7422 356.636 46.4375C356.636 48.4062 357.174 50.0195 358.25 51.2773C359.343 52.5352 360.838 53.1641 362.734 53.1641C363.153 53.1641 363.573 53.1367 363.992 53.082C364.411 53.0091 364.776 52.9089 365.086 52.7812C365.122 52.1068 365.14 51.2409 365.14 50.1836C365.14 49.1081 365.14 47.7865 365.14 46.2188C368.64 46.2188 371.347 46.2188 373.261 46.2188C375.194 46.2005 376.579 46.1914 377.418 46.1914C378.256 46.1914 378.758 46.1914 378.922 46.1914C379.104 46.1732 379.195 46.1641 379.195 46.1641V66.4531Z" fill="#B67B0F"/>
<path d="M25.5914 136.308C24.0607 136.308 22.6141 136.047 21.2514 135.524C19.9074 134.983 18.6101 134.189 17.3594 133.144L19.1794 130.68C20.4487 131.707 21.5781 132.444 22.5674 132.892C23.5754 133.321 24.6487 133.536 25.7874 133.536C26.6461 133.536 27.4021 133.405 28.0554 133.144C28.7274 132.864 29.2407 132.491 29.5954 132.024C29.9687 131.557 30.1554 131.016 30.1554 130.4C30.1554 129.597 29.8847 128.991 29.3434 128.58C28.8207 128.151 27.9061 127.824 26.5994 127.6L22.9874 126.984C21.2887 126.685 20.0194 126.116 19.1794 125.276C18.3581 124.417 17.9474 123.325 17.9474 122C17.9474 120.824 18.2461 119.797 18.8434 118.92C19.4407 118.024 20.2714 117.333 21.3354 116.848C22.4181 116.344 23.6967 116.092 25.1714 116.092C26.6461 116.092 28.0461 116.307 29.3714 116.736C30.6967 117.165 31.9194 117.791 33.0394 118.612L31.3314 121.132C30.3421 120.385 29.3247 119.825 28.2794 119.452C27.2341 119.06 26.1607 118.864 25.0594 118.864C24.2754 118.864 23.5847 118.985 22.9874 119.228C22.4087 119.471 21.9514 119.807 21.6154 120.236C21.2981 120.665 21.1394 121.141 21.1394 121.664C21.1394 122.373 21.3727 122.924 21.8394 123.316C22.3247 123.689 23.0994 123.969 24.1634 124.156L27.6634 124.744C29.6421 125.099 31.0981 125.715 32.0314 126.592C32.9834 127.469 33.4594 128.655 33.4594 130.148C33.4594 131.343 33.1234 132.407 32.4514 133.34C31.7981 134.273 30.8834 135.001 29.7074 135.524C28.5314 136.047 27.1594 136.308 25.5914 136.308ZM43.1017 136.252C42.131 136.252 41.263 136.075 40.4977 135.72C39.751 135.347 39.163 134.843 38.7337 134.208C38.323 133.555 38.1177 132.808 38.1177 131.968C38.1177 131.128 38.3324 130.4 38.7617 129.784C39.2097 129.168 39.835 128.692 40.6377 128.356C41.4404 128.02 42.3924 127.852 43.4937 127.852C44.147 127.852 44.791 127.927 45.4257 128.076C46.0604 128.207 46.6764 128.431 47.2737 128.748V127.18C47.2737 126.247 47.003 125.547 46.4617 125.08C45.939 124.613 45.1364 124.38 44.0537 124.38C43.475 124.38 42.8497 124.473 42.1777 124.66C41.5244 124.828 40.787 125.099 39.9657 125.472L38.8457 123.176C40.899 122.224 42.8404 121.748 44.6697 121.748C46.499 121.748 47.9084 122.196 48.8977 123.092C49.9057 123.969 50.4097 125.22 50.4097 126.844V136H47.2737V134.544C46.6764 135.123 46.0324 135.552 45.3417 135.832C44.651 136.112 43.9044 136.252 43.1017 136.252ZM41.0857 131.912C41.0857 132.565 41.347 133.079 41.8697 133.452C42.3924 133.825 43.0924 134.012 43.9697 134.012C44.6044 134.012 45.1924 133.919 45.7337 133.732C46.2937 133.527 46.807 133.228 47.2737 132.836V130.568C46.7884 130.344 46.2844 130.176 45.7617 130.064C45.239 129.952 44.6697 129.896 44.0537 129.896C43.139 129.896 42.411 130.073 41.8697 130.428C41.347 130.783 41.0857 131.277 41.0857 131.912ZM59.6313 136L53.9193 121.972H57.3633L61.2833 132.164L65.1753 121.972H68.4793L62.7113 136H59.6313ZM78.7089 136.252C77.3836 136.252 76.1796 135.935 75.0969 135.3C74.0329 134.665 73.1929 133.807 72.5769 132.724C71.9609 131.623 71.6529 130.381 71.6529 129C71.6529 127.619 71.9609 126.387 72.5769 125.304C73.1929 124.203 74.0329 123.335 75.0969 122.7C76.1609 122.065 77.3649 121.748 78.7089 121.748C80.0529 121.748 81.2476 122.065 82.2929 122.7C83.3569 123.335 84.1969 124.203 84.8129 125.304C85.4289 126.387 85.7369 127.619 85.7369 129C85.7369 130.381 85.4289 131.623 84.8129 132.724C84.1969 133.807 83.3569 134.665 82.2929 135.3C81.2476 135.935 80.0529 136.252 78.7089 136.252ZM78.7089 133.564C79.4743 133.564 80.1463 133.368 80.7249 132.976C81.3223 132.584 81.7889 132.043 82.1249 131.352C82.4609 130.643 82.6289 129.859 82.6289 129C82.6289 128.123 82.4609 127.348 82.1249 126.676C81.7889 125.985 81.3223 125.444 80.7249 125.052C80.1463 124.641 79.4743 124.436 78.7089 124.436C77.9436 124.436 77.2623 124.641 76.6649 125.052C76.0676 125.444 75.6009 125.985 75.2649 126.676C74.9289 127.348 74.7609 128.123 74.7609 129C74.7609 129.877 74.9289 130.661 75.2649 131.352C75.6009 132.043 76.0676 132.584 76.6649 132.976C77.2623 133.368 77.9436 133.564 78.7089 133.564ZM90.964 136V121.972H94.128V124.996C94.5386 123.932 95.0706 123.12 95.724 122.56C96.3773 122 97.1333 121.72 97.992 121.72C98.2533 121.739 98.4866 121.767 98.692 121.804C98.8973 121.823 99.1213 121.888 99.364 122V124.772C99.1213 124.66 98.8413 124.576 98.524 124.52C98.2253 124.464 97.9266 124.436 97.628 124.436C96.8626 124.436 96.172 124.641 95.556 125.052C94.9586 125.463 94.4826 126.032 94.128 126.76V136H90.964ZM118.213 136.28C116.795 136.28 115.721 135.953 114.993 135.3C114.265 134.628 113.901 133.648 113.901 132.36V124.492H111.101V121.972H113.901V118.108L117.065 117.436V121.972H120.957V124.492H117.065V131.66C117.065 132.351 117.215 132.845 117.513 133.144C117.812 133.424 118.316 133.564 119.025 133.564C119.343 133.564 119.632 133.545 119.893 133.508C120.173 133.452 120.519 133.359 120.929 133.228V135.888C120.537 136.019 120.089 136.112 119.585 136.168C119.1 136.243 118.643 136.28 118.213 136.28ZM125.719 136V115.924L128.883 115.364V124.268C129.424 123.428 130.068 122.803 130.815 122.392C131.562 121.963 132.392 121.748 133.307 121.748C134.278 121.748 135.127 121.963 135.855 122.392C136.583 122.803 137.152 123.381 137.563 124.128C137.992 124.875 138.207 125.752 138.207 126.76V136H135.015V127.656C135.015 126.629 134.735 125.817 134.175 125.22C133.615 124.604 132.868 124.296 131.935 124.296C131.3 124.296 130.722 124.445 130.199 124.744C129.695 125.024 129.256 125.444 128.883 126.004V136H125.719ZM150.5 136.28C149.156 136.28 147.943 135.963 146.86 135.328C145.777 134.675 144.919 133.807 144.284 132.724C143.649 131.623 143.332 130.381 143.332 129C143.332 127.619 143.631 126.387 144.228 125.304C144.825 124.221 145.637 123.363 146.664 122.728C147.709 122.075 148.867 121.748 150.136 121.748C151.443 121.748 152.591 122.065 153.58 122.7C154.588 123.335 155.372 124.193 155.932 125.276C156.511 126.359 156.8 127.6 156.8 129V129.756H146.44C146.552 130.521 146.795 131.203 147.168 131.8C147.56 132.379 148.055 132.836 148.652 133.172C149.268 133.508 149.931 133.676 150.64 133.676C151.293 133.676 151.909 133.564 152.488 133.34C153.085 133.097 153.58 132.771 153.972 132.36L156.044 134.236C155.185 134.945 154.308 135.468 153.412 135.804C152.535 136.121 151.564 136.28 150.5 136.28ZM146.468 127.796H153.804C153.692 127.124 153.459 126.527 153.104 126.004C152.768 125.481 152.339 125.071 151.816 124.772C151.312 124.473 150.752 124.324 150.136 124.324C149.52 124.324 148.951 124.473 148.428 124.772C147.924 125.052 147.504 125.453 147.168 125.976C146.832 126.499 146.599 127.105 146.468 127.796ZM172.14 136V124.492H169.116V121.972H172.14V119.564C172.14 118.052 172.55 116.895 173.372 116.092C174.212 115.271 175.416 114.86 176.984 114.86C177.376 114.86 177.758 114.879 178.132 114.916C178.505 114.953 178.822 115.019 179.084 115.112V117.8C178.729 117.725 178.43 117.679 178.188 117.66C177.945 117.623 177.684 117.604 177.404 117.604C176.676 117.604 176.144 117.763 175.808 118.08C175.472 118.397 175.304 118.911 175.304 119.62V121.972H179.084V124.492H175.304V136H172.14ZM183.707 136V115.924L186.871 115.364V136H183.707ZM196.978 136.252C196.007 136.252 195.139 136.075 194.374 135.72C193.627 135.347 193.039 134.843 192.61 134.208C192.199 133.555 191.994 132.808 191.994 131.968C191.994 131.128 192.209 130.4 192.638 129.784C193.086 129.168 193.711 128.692 194.514 128.356C195.317 128.02 196.269 127.852 197.37 127.852C198.023 127.852 198.667 127.927 199.302 128.076C199.937 128.207 200.553 128.431 201.15 128.748V127.18C201.15 126.247 200.879 125.547 200.338 125.08C199.815 124.613 199.013 124.38 197.93 124.38C197.351 124.38 196.726 124.473 196.054 124.66C195.401 124.828 194.663 125.099 193.842 125.472L192.722 123.176C194.775 122.224 196.717 121.748 198.546 121.748C200.375 121.748 201.785 122.196 202.774 123.092C203.782 123.969 204.286 125.22 204.286 126.844V136H201.15V134.544C200.553 135.123 199.909 135.552 199.218 135.832C198.527 136.112 197.781 136.252 196.978 136.252ZM194.962 131.912C194.962 132.565 195.223 133.079 195.746 133.452C196.269 133.825 196.969 134.012 197.846 134.012C198.481 134.012 199.069 133.919 199.61 133.732C200.17 133.527 200.683 133.228 201.15 132.836V130.568C200.665 130.344 200.161 130.176 199.638 130.064C199.115 129.952 198.546 129.896 197.93 129.896C197.015 129.896 196.287 130.073 195.746 130.428C195.223 130.783 194.962 131.277 194.962 131.912ZM213.508 136L207.796 121.972H211.24L215.16 132.164L219.052 121.972H222.356L216.588 136H213.508ZM232.585 136.252C231.26 136.252 230.056 135.935 228.973 135.3C227.909 134.665 227.069 133.807 226.453 132.724C225.837 131.623 225.529 130.381 225.529 129C225.529 127.619 225.837 126.387 226.453 125.304C227.069 124.203 227.909 123.335 228.973 122.7C230.037 122.065 231.241 121.748 232.585 121.748C233.929 121.748 235.124 122.065 236.169 122.7C237.233 123.335 238.073 124.203 238.689 125.304C239.305 126.387 239.613 127.619 239.613 129C239.613 130.381 239.305 131.623 238.689 132.724C238.073 133.807 237.233 134.665 236.169 135.3C235.124 135.935 233.929 136.252 232.585 136.252ZM232.585 133.564C233.351 133.564 234.023 133.368 234.601 132.976C235.199 132.584 235.665 132.043 236.001 131.352C236.337 130.643 236.505 129.859 236.505 129C236.505 128.123 236.337 127.348 236.001 126.676C235.665 125.985 235.199 125.444 234.601 125.052C234.023 124.641 233.351 124.436 232.585 124.436C231.82 124.436 231.139 124.641 230.541 125.052C229.944 125.444 229.477 125.985 229.141 126.676C228.805 127.348 228.637 128.123 228.637 129C228.637 129.877 228.805 130.661 229.141 131.352C229.477 132.043 229.944 132.584 230.541 132.976C231.139 133.368 231.82 133.564 232.585 133.564ZM244.84 136V121.972H248.004V124.996C248.415 123.932 248.947 123.12 249.6 122.56C250.254 122 251.01 121.72 251.868 121.72C252.13 121.739 252.363 121.767 252.568 121.804C252.774 121.823 252.998 121.888 253.24 122V124.772C252.998 124.66 252.718 124.576 252.4 124.52C252.102 124.464 251.803 124.436 251.504 124.436C250.739 124.436 250.048 124.641 249.432 125.052C248.835 125.463 248.359 126.032 248.004 126.76V136H244.84ZM258.101 129.98L257.709 115.644H260.845L260.453 129.98H258.101ZM259.277 136.252C258.735 136.252 258.278 136.065 257.905 135.692C257.531 135.3 257.345 134.833 257.345 134.292C257.345 133.751 257.531 133.293 257.905 132.92C258.297 132.528 258.754 132.332 259.277 132.332C259.818 132.332 260.275 132.528 260.649 132.92C261.022 133.293 261.209 133.751 261.209 134.292C261.209 134.833 261.022 135.3 260.649 135.692C260.275 136.065 259.818 136.252 259.277 136.252ZM275.284 136V116.4H289.312V119.256H278.644V124.716H286.092V127.516H278.644V133.144H289.424V136H275.284ZM293.029 136L298.321 128.776L293.253 121.972H296.977L300.253 126.592L303.529 121.972H307.085L301.961 128.86L307.309 136H303.613L300.085 131.1L296.557 136H293.029ZM311.57 141.852V121.972H314.678V123.96C315.182 123.288 315.807 122.775 316.554 122.42C317.319 122.047 318.15 121.86 319.046 121.86C320.241 121.86 321.314 122.177 322.266 122.812C323.218 123.447 323.974 124.305 324.534 125.388C325.094 126.471 325.374 127.675 325.374 129C325.374 130.325 325.085 131.529 324.506 132.612C323.927 133.695 323.143 134.553 322.154 135.188C321.165 135.823 320.063 136.14 318.85 136.14C318.01 136.14 317.235 135.991 316.526 135.692C315.835 135.375 315.238 134.927 314.734 134.348V141.852H311.57ZM318.094 133.508C318.897 133.508 319.606 133.312 320.222 132.92C320.857 132.528 321.351 131.996 321.706 131.324C322.079 130.633 322.266 129.859 322.266 129C322.266 128.141 322.079 127.376 321.706 126.704C321.351 126.032 320.857 125.5 320.222 125.108C319.606 124.716 318.897 124.52 318.094 124.52C317.403 124.52 316.769 124.66 316.19 124.94C315.611 125.201 315.126 125.584 314.734 126.088V131.94C315.145 132.425 315.639 132.808 316.218 133.088C316.797 133.368 317.422 133.508 318.094 133.508ZM330.647 136V115.924L333.811 115.364V136H330.647ZM346.074 136.252C344.749 136.252 343.545 135.935 342.462 135.3C341.398 134.665 340.558 133.807 339.942 132.724C339.326 131.623 339.018 130.381 339.018 129C339.018 127.619 339.326 126.387 339.942 125.304C340.558 124.203 341.398 123.335 342.462 122.7C343.526 122.065 344.73 121.748 346.074 121.748C347.418 121.748 348.613 122.065 349.658 122.7C350.722 123.335 351.562 124.203 352.178 125.304C352.794 126.387 353.102 127.619 353.102 129C353.102 130.381 352.794 131.623 352.178 132.724C351.562 133.807 350.722 134.665 349.658 135.3C348.613 135.935 347.418 136.252 346.074 136.252ZM346.074 133.564C346.839 133.564 347.511 133.368 348.09 132.976C348.687 132.584 349.154 132.043 349.49 131.352C349.826 130.643 349.994 129.859 349.994 129C349.994 128.123 349.826 127.348 349.49 126.676C349.154 125.985 348.687 125.444 348.09 125.052C347.511 124.641 346.839 124.436 346.074 124.436C345.309 124.436 344.627 124.641 344.03 125.052C343.433 125.444 342.966 125.985 342.63 126.676C342.294 127.348 342.126 128.123 342.126 129C342.126 129.877 342.294 130.661 342.63 131.352C342.966 132.043 343.433 132.584 344.03 132.976C344.627 133.368 345.309 133.564 346.074 133.564ZM358.329 136V121.972H361.493V124.996C361.904 123.932 362.436 123.12 363.089 122.56C363.742 122 364.498 121.72 365.357 121.72C365.618 121.739 365.852 121.767 366.057 121.804C366.262 121.823 366.486 121.888 366.729 122V124.772C366.486 124.66 366.206 124.576 365.889 124.52C365.59 124.464 365.292 124.436 364.993 124.436C364.228 124.436 363.537 124.641 362.921 125.052C362.324 125.463 361.848 126.032 361.493 126.76V136H358.329ZM377.149 136.28C375.805 136.28 374.592 135.963 373.509 135.328C372.426 134.675 371.568 133.807 370.933 132.724C370.298 131.623 369.981 130.381 369.981 129C369.981 127.619 370.28 126.387 370.877 125.304C371.474 124.221 372.286 123.363 373.313 122.728C374.358 122.075 375.516 121.748 376.785 121.748C378.092 121.748 379.24 122.065 380.229 122.7C381.237 123.335 382.021 124.193 382.581 125.276C383.16 126.359 383.449 127.6 383.449 129V129.756H373.089C373.201 130.521 373.444 131.203 373.817 131.8C374.209 132.379 374.704 132.836 375.301 133.172C375.917 133.508 376.58 133.676 377.289 133.676C377.942 133.676 378.558 133.564 379.137 133.34C379.734 133.097 380.229 132.771 380.621 132.36L382.693 134.236C381.834 134.945 380.957 135.468 380.061 135.804C379.184 136.121 378.213 136.28 377.149 136.28ZM373.117 127.796H380.453C380.341 127.124 380.108 126.527 379.753 126.004C379.417 125.481 378.988 125.071 378.465 124.772C377.961 124.473 377.401 124.324 376.785 124.324C376.169 124.324 375.6 124.473 375.077 124.772C374.573 125.052 374.153 125.453 373.817 125.976C373.481 126.499 373.248 127.105 373.117 127.796ZM403.297 136.252C401.971 136.252 400.767 135.935 399.685 135.3C398.621 134.665 397.781 133.807 397.165 132.724C396.549 131.623 396.241 130.381 396.241 129C396.241 127.619 396.549 126.387 397.165 125.304C397.781 124.203 398.621 123.335 399.685 122.7C400.749 122.065 401.953 121.748 403.297 121.748C404.641 121.748 405.835 122.065 406.881 122.7C407.945 123.335 408.785 124.203 409.401 125.304C410.017 126.387 410.325 127.619 410.325 129C410.325 130.381 410.017 131.623 409.401 132.724C408.785 133.807 407.945 134.665 406.881 135.3C405.835 135.935 404.641 136.252 403.297 136.252ZM403.297 133.564C404.062 133.564 404.734 133.368 405.313 132.976C405.91 132.584 406.377 132.043 406.713 131.352C407.049 130.643 407.217 129.859 407.217 129C407.217 128.123 407.049 127.348 406.713 126.676C406.377 125.985 405.91 125.444 405.313 125.052C404.734 124.641 404.062 124.436 403.297 124.436C402.531 124.436 401.85 124.641 401.253 125.052C400.655 125.444 400.189 125.985 399.853 126.676C399.517 127.348 399.349 128.123 399.349 129C399.349 129.877 399.517 130.661 399.853 131.352C400.189 132.043 400.655 132.584 401.253 132.976C401.85 133.368 402.531 133.564 403.297 133.564ZM420.34 136.224C419.369 136.224 418.52 136.009 417.792 135.58C417.064 135.151 416.485 134.563 416.056 133.816C415.645 133.069 415.44 132.201 415.44 131.212V121.972H418.632V130.288C418.632 131.333 418.902 132.164 419.444 132.78C420.004 133.377 420.76 133.676 421.712 133.676C422.346 133.676 422.916 133.536 423.42 133.256C423.942 132.976 424.39 132.556 424.764 131.996V121.972H427.928V136H424.764V133.732C424.222 134.553 423.578 135.179 422.832 135.608C422.085 136.019 421.254 136.224 420.34 136.224ZM433.809 136V121.972H436.973V124.996C437.383 123.932 437.915 123.12 438.569 122.56C439.222 122 439.978 121.72 440.837 121.72C441.098 121.739 441.331 121.767 441.537 121.804C441.742 121.823 441.966 121.888 442.209 122V124.772C441.966 124.66 441.686 124.576 441.369 124.52C441.07 124.464 440.771 124.436 440.473 124.436C439.707 124.436 439.017 124.641 438.401 125.052C437.803 125.463 437.327 126.032 436.973 126.76V136H433.809ZM460.694 136.14C459.518 136.14 458.454 135.823 457.502 135.188C456.55 134.535 455.785 133.676 455.206 132.612C454.646 131.529 454.366 130.325 454.366 129C454.366 127.656 454.655 126.452 455.234 125.388C455.813 124.305 456.597 123.447 457.586 122.812C458.594 122.177 459.705 121.86 460.918 121.86C461.721 121.86 462.467 122.019 463.158 122.336C463.867 122.635 464.483 123.083 465.006 123.68V115.924L468.17 115.364V136H465.034V134.152C464.53 134.787 463.905 135.281 463.158 135.636C462.411 135.972 461.59 136.14 460.694 136.14ZM461.674 133.48C462.346 133.48 462.971 133.349 463.55 133.088C464.129 132.808 464.614 132.425 465.006 131.94V126.032C464.595 125.547 464.101 125.173 463.522 124.912C462.943 124.651 462.327 124.52 461.674 124.52C460.871 124.52 460.153 124.716 459.518 125.108C458.902 125.481 458.407 126.004 458.034 126.676C457.661 127.348 457.474 128.123 457.474 129C457.474 129.84 457.661 130.605 458.034 131.296C458.407 131.968 458.902 132.5 459.518 132.892C460.153 133.284 460.871 133.48 461.674 133.48ZM480.584 136.28C479.24 136.28 478.026 135.963 476.944 135.328C475.861 134.675 475.002 133.807 474.368 132.724C473.733 131.623 473.416 130.381 473.416 129C473.416 127.619 473.714 126.387 474.312 125.304C474.909 124.221 475.721 123.363 476.748 122.728C477.793 122.075 478.95 121.748 480.22 121.748C481.526 121.748 482.674 122.065 483.664 122.7C484.672 123.335 485.456 124.193 486.016 125.276C486.594 126.359 486.884 127.6 486.884 129V129.756H476.524C476.636 130.521 476.878 131.203 477.252 131.8C477.644 132.379 478.138 132.836 478.736 133.172C479.352 133.508 480.014 133.676 480.724 133.676C481.377 133.676 481.993 133.564 482.572 133.34C483.169 133.097 483.664 132.771 484.056 132.36L486.128 134.236C485.269 134.945 484.392 135.468 483.496 135.804C482.618 136.121 481.648 136.28 480.584 136.28ZM476.552 127.796H483.888C483.776 127.124 483.542 126.527 483.188 126.004C482.852 125.481 482.422 125.071 481.9 124.772C481.396 124.473 480.836 124.324 480.22 124.324C479.604 124.324 479.034 124.473 478.512 124.772C478.008 125.052 477.588 125.453 477.252 125.976C476.916 126.499 476.682 127.105 476.552 127.796ZM492.071 136V115.924L495.235 115.364V136H492.071ZM501.057 136V121.972H504.221V136H501.057ZM502.653 119.116C502.112 119.116 501.645 118.929 501.253 118.556C500.88 118.164 500.693 117.707 500.693 117.184C500.693 116.643 500.88 116.185 501.253 115.812C501.645 115.42 502.112 115.224 502.653 115.224C503.195 115.224 503.652 115.42 504.025 115.812C504.417 116.185 504.613 116.633 504.613 117.156C504.613 117.697 504.417 118.164 504.025 118.556C503.652 118.929 503.195 119.116 502.653 119.116ZM516.54 136.252C515.215 136.252 514.011 135.935 512.928 135.3C511.864 134.647 511.015 133.769 510.38 132.668C509.764 131.567 509.456 130.344 509.456 129C509.456 127.637 509.764 126.415 510.38 125.332C511.015 124.231 511.864 123.363 512.928 122.728C514.011 122.075 515.215 121.748 516.54 121.748C517.623 121.748 518.649 121.953 519.62 122.364C520.609 122.775 521.449 123.363 522.14 124.128L520.18 126.172C519.695 125.631 519.153 125.22 518.556 124.94C517.959 124.66 517.324 124.52 516.652 124.52C515.887 124.52 515.196 124.725 514.58 125.136C513.983 125.528 513.507 126.06 513.152 126.732C512.797 127.404 512.62 128.16 512.62 129C512.62 129.84 512.797 130.605 513.152 131.296C513.507 131.968 513.983 132.5 514.58 132.892C515.196 133.284 515.887 133.48 516.652 133.48C517.324 133.48 517.959 133.34 518.556 133.06C519.153 132.78 519.695 132.379 520.18 131.856L522.14 133.872C521.449 134.637 520.609 135.225 519.62 135.636C518.649 136.047 517.623 136.252 516.54 136.252ZM526.688 136V121.972H529.852V136H526.688ZM528.284 119.116C527.743 119.116 527.276 118.929 526.884 118.556C526.511 118.164 526.324 117.707 526.324 117.184C526.324 116.643 526.511 116.185 526.884 115.812C527.276 115.42 527.743 115.224 528.284 115.224C528.825 115.224 529.283 115.42 529.656 115.812C530.048 116.185 530.244 116.633 530.244 117.156C530.244 117.697 530.048 118.164 529.656 118.556C529.283 118.929 528.825 119.116 528.284 119.116ZM542.143 136.252C540.818 136.252 539.614 135.935 538.531 135.3C537.467 134.665 536.627 133.807 536.011 132.724C535.395 131.623 535.087 130.381 535.087 129C535.087 127.619 535.395 126.387 536.011 125.304C536.627 124.203 537.467 123.335 538.531 122.7C539.595 122.065 540.799 121.748 542.143 121.748C543.487 121.748 544.682 122.065 545.727 122.7C546.791 123.335 547.631 124.203 548.247 125.304C548.863 126.387 549.171 127.619 549.171 129C549.171 130.381 548.863 131.623 548.247 132.724C547.631 133.807 546.791 134.665 545.727 135.3C544.682 135.935 543.487 136.252 542.143 136.252ZM542.143 133.564C542.908 133.564 543.58 133.368 544.159 132.976C544.756 132.584 545.223 132.043 545.559 131.352C545.895 130.643 546.063 129.859 546.063 129C546.063 128.123 545.895 127.348 545.559 126.676C545.223 125.985 544.756 125.444 544.159 125.052C543.58 124.641 542.908 124.436 542.143 124.436C541.378 124.436 540.696 124.641 540.099 125.052C539.502 125.444 539.035 125.985 538.699 126.676C538.363 127.348 538.195 128.123 538.195 129C538.195 129.877 538.363 130.661 538.699 131.352C539.035 132.043 539.502 132.584 540.099 132.976C540.696 133.368 541.378 133.564 542.143 133.564ZM559.186 136.224C558.215 136.224 557.366 136.009 556.638 135.58C555.91 135.151 555.331 134.563 554.902 133.816C554.491 133.069 554.286 132.201 554.286 131.212V121.972H557.478V130.288C557.478 131.333 557.749 132.164 558.29 132.78C558.85 133.377 559.606 133.676 560.558 133.676C561.193 133.676 561.762 133.536 562.266 133.256C562.789 132.976 563.237 132.556 563.61 131.996V121.972H566.774V136H563.61V133.732C563.069 134.553 562.425 135.179 561.678 135.608C560.931 136.019 560.101 136.224 559.186 136.224ZM577.415 136.28C576.22 136.28 575.1 136.121 574.055 135.804C573.028 135.468 572.141 134.992 571.395 134.376L572.879 132.276C573.812 132.855 574.615 133.265 575.287 133.508C575.977 133.751 576.677 133.872 577.387 133.872C578.227 133.872 578.908 133.695 579.431 133.34C579.953 132.985 580.215 132.528 580.215 131.968C580.215 131.539 580.056 131.203 579.739 130.96C579.44 130.699 578.945 130.503 578.255 130.372L575.791 129.952C574.428 129.691 573.411 129.243 572.739 128.608C572.067 127.973 571.731 127.133 571.731 126.088C571.731 125.211 571.955 124.455 572.403 123.82C572.869 123.167 573.504 122.663 574.307 122.308C575.128 121.935 576.08 121.748 577.163 121.748C578.133 121.748 579.076 121.888 579.991 122.168C580.905 122.448 581.801 122.868 582.679 123.428L581.195 125.528C580.485 125.061 579.776 124.725 579.067 124.52C578.376 124.296 577.676 124.184 576.967 124.184C576.239 124.184 575.651 124.333 575.203 124.632C574.773 124.912 574.559 125.304 574.559 125.808C574.559 126.256 574.699 126.601 574.979 126.844C575.277 127.068 575.791 127.236 576.519 127.348L579.011 127.824C580.411 128.067 581.447 128.515 582.119 129.168C582.809 129.803 583.155 130.652 583.155 131.716C583.155 132.575 582.903 133.349 582.399 134.04C581.895 134.731 581.213 135.281 580.355 135.692C579.496 136.084 578.516 136.28 577.415 136.28ZM596.262 136V121.972H599.426V124.184C599.949 123.381 600.556 122.775 601.246 122.364C601.956 121.953 602.73 121.748 603.57 121.748C604.541 121.748 605.381 121.991 606.09 122.476C606.818 122.961 607.36 123.615 607.714 124.436C608.274 123.559 608.937 122.896 609.702 122.448C610.486 121.981 611.373 121.748 612.362 121.748C613.258 121.748 614.052 121.963 614.742 122.392C615.452 122.821 615.993 123.419 616.366 124.184C616.758 124.949 616.954 125.827 616.954 126.816V136H613.79V127.516C613.79 126.527 613.538 125.743 613.034 125.164C612.53 124.585 611.84 124.296 610.962 124.296C610.402 124.296 609.88 124.436 609.394 124.716C608.928 124.996 608.517 125.416 608.162 125.976C608.181 126.107 608.19 126.247 608.19 126.396C608.209 126.527 608.218 126.667 608.218 126.816V136H605.026V127.516C605.026 126.527 604.774 125.743 604.27 125.164C603.766 124.585 603.076 124.296 602.198 124.296C601.06 124.296 600.136 124.837 599.426 125.92V136H596.262ZM629.274 136.28C627.93 136.28 626.716 135.963 625.634 135.328C624.551 134.675 623.692 133.807 623.058 132.724C622.423 131.623 622.106 130.381 622.106 129C622.106 127.619 622.404 126.387 623.002 125.304C623.599 124.221 624.411 123.363 625.438 122.728C626.483 122.075 627.64 121.748 628.91 121.748C630.216 121.748 631.364 122.065 632.354 122.7C633.362 123.335 634.146 124.193 634.706 125.276C635.284 126.359 635.574 127.6 635.574 129V129.756H625.214C625.326 130.521 625.568 131.203 625.942 131.8C626.334 132.379 626.828 132.836 627.426 133.172C628.042 133.508 628.704 133.676 629.414 133.676C630.067 133.676 630.683 133.564 631.262 133.34C631.859 133.097 632.354 132.771 632.746 132.36L634.818 134.236C633.959 134.945 633.082 135.468 632.186 135.804C631.308 136.121 630.338 136.28 629.274 136.28ZM625.242 127.796H632.578C632.466 127.124 632.232 126.527 631.878 126.004C631.542 125.481 631.112 125.071 630.59 124.772C630.086 124.473 629.526 124.324 628.91 124.324C628.294 124.324 627.724 124.473 627.202 124.772C626.698 125.052 626.278 125.453 625.942 125.976C625.606 126.499 625.372 127.105 625.242 127.796ZM640.76 136V121.972H643.924V124.268C644.466 123.428 645.11 122.803 645.856 122.392C646.603 121.963 647.434 121.748 648.348 121.748C649.319 121.748 650.168 121.963 650.896 122.392C651.624 122.803 652.194 123.381 652.604 124.128C653.034 124.875 653.248 125.752 653.248 126.76V136H650.056V127.656C650.056 126.629 649.776 125.817 649.216 125.22C648.656 124.604 647.91 124.296 646.976 124.296C646.342 124.296 645.763 124.445 645.24 124.744C644.736 125.024 644.298 125.444 643.924 126.004V136H640.76ZM663.669 136.224C662.698 136.224 661.849 136.009 661.121 135.58C660.393 135.151 659.814 134.563 659.385 133.816C658.974 133.069 658.769 132.201 658.769 131.212V121.972H661.961V130.288C661.961 131.333 662.231 132.164 662.773 132.78C663.333 133.377 664.089 133.676 665.041 133.676C665.675 133.676 666.245 133.536 666.749 133.256C667.271 132.976 667.719 132.556 668.093 131.996V121.972H671.257V136H668.093V133.732C667.551 134.553 666.907 135.179 666.161 135.608C665.414 136.019 664.583 136.224 663.669 136.224ZM689.643 136.252C688.672 136.252 687.804 136.075 687.039 135.72C686.292 135.347 685.704 134.843 685.275 134.208C684.864 133.555 684.659 132.808 684.659 131.968C684.659 131.128 684.873 130.4 685.303 129.784C685.751 129.168 686.376 128.692 687.179 128.356C687.981 128.02 688.933 127.852 690.035 127.852C690.688 127.852 691.332 127.927 691.967 128.076C692.601 128.207 693.217 128.431 693.815 128.748V127.18C693.815 126.247 693.544 125.547 693.003 125.08C692.48 124.613 691.677 124.38 690.595 124.38C690.016 124.38 689.391 124.473 688.719 124.66C688.065 124.828 687.328 125.099 686.507 125.472L685.387 123.176C687.44 122.224 689.381 121.748 691.211 121.748C693.04 121.748 694.449 122.196 695.439 123.092C696.447 123.969 696.951 125.22 696.951 126.844V136H693.815V134.544C693.217 135.123 692.573 135.552 691.883 135.832C691.192 136.112 690.445 136.252 689.643 136.252ZM687.627 131.912C687.627 132.565 687.888 133.079 688.411 133.452C688.933 133.825 689.633 134.012 690.511 134.012C691.145 134.012 691.733 133.919 692.275 133.732C692.835 133.527 693.348 133.228 693.815 132.836V130.568C693.329 130.344 692.825 130.176 692.303 130.064C691.78 129.952 691.211 129.896 690.595 129.896C689.68 129.896 688.952 130.073 688.411 130.428C687.888 130.783 687.627 131.277 687.627 131.912ZM702.741 136V121.972H705.905V124.268C706.446 123.428 707.09 122.803 707.837 122.392C708.584 121.963 709.414 121.748 710.329 121.748C711.3 121.748 712.149 121.963 712.877 122.392C713.605 122.803 714.174 123.381 714.585 124.128C715.014 124.875 715.229 125.752 715.229 126.76V136H712.037V127.656C712.037 126.629 711.757 125.817 711.197 125.22C710.637 124.604 709.89 124.296 708.957 124.296C708.322 124.296 707.744 124.445 707.221 124.744C706.717 125.024 706.278 125.444 705.905 126.004V136H702.741ZM726.682 136.14C725.506 136.14 724.442 135.823 723.49 135.188C722.538 134.535 721.773 133.676 721.194 132.612C720.634 131.529 720.354 130.325 720.354 129C720.354 127.656 720.643 126.452 721.222 125.388C721.801 124.305 722.585 123.447 723.574 122.812C724.582 122.177 725.693 121.86 726.906 121.86C727.709 121.86 728.455 122.019 729.146 122.336C729.855 122.635 730.471 123.083 730.994 123.68V115.924L734.158 115.364V136H731.022V134.152C730.518 134.787 729.893 135.281 729.146 135.636C728.399 135.972 727.578 136.14 726.682 136.14ZM727.662 133.48C728.334 133.48 728.959 133.349 729.538 133.088C730.117 132.808 730.602 132.425 730.994 131.94V126.032C730.583 125.547 730.089 125.173 729.51 124.912C728.931 124.651 728.315 124.52 727.662 124.52C726.859 124.52 726.141 124.716 725.506 125.108C724.89 125.481 724.395 126.004 724.022 126.676C723.649 127.348 723.462 128.123 723.462 129C723.462 129.84 723.649 130.605 724.022 131.296C724.395 131.968 724.89 132.5 725.506 132.892C726.141 133.284 726.859 133.48 727.662 133.48ZM754.709 136.252C753.383 136.252 752.179 135.935 751.097 135.3C750.033 134.665 749.193 133.807 748.577 132.724C747.961 131.623 747.653 130.381 747.653 129C747.653 127.619 747.961 126.387 748.577 125.304C749.193 124.203 750.033 123.335 751.097 122.7C752.161 122.065 753.365 121.748 754.709 121.748C756.053 121.748 757.247 122.065 758.293 122.7C759.357 123.335 760.197 124.203 760.813 125.304C761.429 126.387 761.737 127.619 761.737 129C761.737 130.381 761.429 131.623 760.813 132.724C760.197 133.807 759.357 134.665 758.293 135.3C757.247 135.935 756.053 136.252 754.709 136.252ZM754.709 133.564C755.474 133.564 756.146 133.368 756.725 132.976C757.322 132.584 757.789 132.043 758.125 131.352C758.461 130.643 758.629 129.859 758.629 129C758.629 128.123 758.461 127.348 758.125 126.676C757.789 125.985 757.322 125.444 756.725 125.052C756.146 124.641 755.474 124.436 754.709 124.436C753.943 124.436 753.262 124.641 752.665 125.052C752.067 125.444 751.601 125.985 751.265 126.676C750.929 127.348 750.761 128.123 750.761 129C750.761 129.877 750.929 130.661 751.265 131.352C751.601 132.043 752.067 132.584 752.665 132.976C753.262 133.368 753.943 133.564 754.709 133.564ZM766.964 136V121.972H770.128V124.996C770.538 123.932 771.07 123.12 771.724 122.56C772.377 122 773.133 121.72 773.992 121.72C774.253 121.739 774.486 121.767 774.692 121.804C774.897 121.823 775.121 121.888 775.364 122V124.772C775.121 124.66 774.841 124.576 774.524 124.52C774.225 124.464 773.926 124.436 773.628 124.436C772.862 124.436 772.172 124.641 771.556 125.052C770.958 125.463 770.482 126.032 770.128 126.76V136H766.964ZM784.944 136.14C783.768 136.14 782.704 135.823 781.752 135.188C780.8 134.535 780.034 133.676 779.456 132.612C778.896 131.529 778.616 130.325 778.616 129C778.616 127.656 778.905 126.452 779.484 125.388C780.062 124.305 780.846 123.447 781.836 122.812C782.844 122.177 783.954 121.86 785.168 121.86C785.97 121.86 786.717 122.019 787.408 122.336C788.117 122.635 788.733 123.083 789.256 123.68V115.924L792.42 115.364V136H789.284V134.152C788.78 134.787 788.154 135.281 787.408 135.636C786.661 135.972 785.84 136.14 784.944 136.14ZM785.924 133.48C786.596 133.48 787.221 133.349 787.8 133.088C788.378 132.808 788.864 132.425 789.256 131.94V126.032C788.845 125.547 788.35 125.173 787.772 124.912C787.193 124.651 786.577 124.52 785.924 124.52C785.121 124.52 784.402 124.716 783.768 125.108C783.152 125.481 782.657 126.004 782.284 126.676C781.91 127.348 781.724 128.123 781.724 129C781.724 129.84 781.91 130.605 782.284 131.296C782.657 131.968 783.152 132.5 783.768 132.892C784.402 133.284 785.121 133.48 785.924 133.48ZM804.834 136.28C803.49 136.28 802.276 135.963 801.194 135.328C800.111 134.675 799.252 133.807 798.618 132.724C797.983 131.623 797.666 130.381 797.666 129C797.666 127.619 797.964 126.387 798.562 125.304C799.159 124.221 799.971 123.363 800.998 122.728C802.043 122.075 803.2 121.748 804.47 121.748C805.776 121.748 806.924 122.065 807.914 122.7C808.922 123.335 809.706 124.193 810.266 125.276C810.844 126.359 811.134 127.6 811.134 129V129.756H800.774C800.886 130.521 801.128 131.203 801.502 131.8C801.894 132.379 802.388 132.836 802.986 133.172C803.602 133.508 804.264 133.676 804.974 133.676C805.627 133.676 806.243 133.564 806.822 133.34C807.419 133.097 807.914 132.771 808.306 132.36L810.378 134.236C809.519 134.945 808.642 135.468 807.746 135.804C806.868 136.121 805.898 136.28 804.834 136.28ZM800.802 127.796H808.138C808.026 127.124 807.792 126.527 807.438 126.004C807.102 125.481 806.672 125.071 806.15 124.772C805.646 124.473 805.086 124.324 804.47 124.324C803.854 124.324 803.284 124.473 802.762 124.772C802.258 125.052 801.838 125.453 801.502 125.976C801.166 126.499 800.932 127.105 800.802 127.796ZM816.32 136V121.972H819.484V124.996C819.895 123.932 820.427 123.12 821.08 122.56C821.734 122 822.49 121.72 823.348 121.72C823.61 121.739 823.843 121.767 824.048 121.804C824.254 121.823 824.478 121.888 824.72 122V124.772C824.478 124.66 824.198 124.576 823.88 124.52C823.582 124.464 823.283 124.436 822.984 124.436C822.219 124.436 821.528 124.641 820.912 125.052C820.315 125.463 819.839 126.032 819.484 126.76V136H816.32ZM232.95 173V158.972H236.114V161.268C236.656 160.428 237.3 159.803 238.046 159.392C238.793 158.963 239.624 158.748 240.538 158.748C241.509 158.748 242.358 158.963 243.086 159.392C243.814 159.803 244.384 160.381 244.794 161.128C245.224 161.875 245.438 162.752 245.438 163.76V173H242.246V164.656C242.246 163.629 241.966 162.817 241.406 162.22C240.846 161.604 240.1 161.296 239.166 161.296C238.532 161.296 237.953 161.445 237.43 161.744C236.926 162.024 236.488 162.444 236.114 163.004V173H232.95ZM257.619 173.252C256.294 173.252 255.09 172.935 254.007 172.3C252.943 171.665 252.103 170.807 251.487 169.724C250.871 168.623 250.563 167.381 250.563 166C250.563 164.619 250.871 163.387 251.487 162.304C252.103 161.203 252.943 160.335 254.007 159.7C255.071 159.065 256.275 158.748 257.619 158.748C258.963 158.748 260.158 159.065 261.203 159.7C262.267 160.335 263.107 161.203 263.723 162.304C264.339 163.387 264.647 164.619 264.647 166C264.647 167.381 264.339 168.623 263.723 169.724C263.107 170.807 262.267 171.665 261.203 172.3C260.158 172.935 258.963 173.252 257.619 173.252ZM257.619 170.564C258.384 170.564 259.056 170.368 259.635 169.976C260.232 169.584 260.699 169.043 261.035 168.352C261.371 167.643 261.539 166.859 261.539 166C261.539 165.123 261.371 164.348 261.035 163.676C260.699 162.985 260.232 162.444 259.635 162.052C259.056 161.641 258.384 161.436 257.619 161.436C256.854 161.436 256.172 161.641 255.575 162.052C254.978 162.444 254.511 162.985 254.175 163.676C253.839 164.348 253.671 165.123 253.671 166C253.671 166.877 253.839 167.661 254.175 168.352C254.511 169.043 254.978 169.584 255.575 169.976C256.172 170.368 256.854 170.564 257.619 170.564ZM272.065 173L268.285 158.972H271.309L273.773 168.856L276.685 158.972H279.345L282.229 168.856L284.693 158.972H287.633L283.853 173H280.829L277.973 163.116L275.145 173H272.065ZM302.331 173V161.492H299.307V158.972H302.331V156.564C302.331 155.052 302.742 153.895 303.563 153.092C304.403 152.271 305.607 151.86 307.175 151.86C307.567 151.86 307.95 151.879 308.323 151.916C308.696 151.953 309.014 152.019 309.275 152.112V154.8C308.92 154.725 308.622 154.679 308.379 154.66C308.136 154.623 307.875 154.604 307.595 154.604C306.867 154.604 306.335 154.763 305.999 155.08C305.663 155.397 305.495 155.911 305.495 156.62V158.972H309.275V161.492H305.495V173H302.331ZM319.736 173.252C318.411 173.252 317.207 172.935 316.124 172.3C315.06 171.665 314.22 170.807 313.604 169.724C312.988 168.623 312.68 167.381 312.68 166C312.68 164.619 312.988 163.387 313.604 162.304C314.22 161.203 315.06 160.335 316.124 159.7C317.188 159.065 318.392 158.748 319.736 158.748C321.08 158.748 322.275 159.065 323.32 159.7C324.384 160.335 325.224 161.203 325.84 162.304C326.456 163.387 326.764 164.619 326.764 166C326.764 167.381 326.456 168.623 325.84 169.724C325.224 170.807 324.384 171.665 323.32 172.3C322.275 172.935 321.08 173.252 319.736 173.252ZM319.736 170.564C320.502 170.564 321.174 170.368 321.752 169.976C322.35 169.584 322.816 169.043 323.152 168.352C323.488 167.643 323.656 166.859 323.656 166C323.656 165.123 323.488 164.348 323.152 163.676C322.816 162.985 322.35 162.444 321.752 162.052C321.174 161.641 320.502 161.436 319.736 161.436C318.971 161.436 318.29 161.641 317.692 162.052C317.095 162.444 316.628 162.985 316.292 163.676C315.956 164.348 315.788 165.123 315.788 166C315.788 166.877 315.956 167.661 316.292 168.352C316.628 169.043 317.095 169.584 317.692 169.976C318.29 170.368 318.971 170.564 319.736 170.564ZM331.991 173V158.972H335.155V161.996C335.566 160.932 336.098 160.12 336.751 159.56C337.405 159 338.161 158.72 339.019 158.72C339.281 158.739 339.514 158.767 339.719 158.804C339.925 158.823 340.149 158.888 340.391 159V161.772C340.149 161.66 339.869 161.576 339.551 161.52C339.253 161.464 338.954 161.436 338.655 161.436C337.89 161.436 337.199 161.641 336.583 162.052C335.986 162.463 335.51 163.032 335.155 163.76V173H331.991ZM357.449 173.252C356.478 173.252 355.61 173.075 354.845 172.72C354.098 172.347 353.51 171.843 353.081 171.208C352.67 170.555 352.465 169.808 352.465 168.968C352.465 168.128 352.679 167.4 353.109 166.784C353.557 166.168 354.182 165.692 354.985 165.356C355.787 165.02 356.739 164.852 357.841 164.852C358.494 164.852 359.138 164.927 359.773 165.076C360.407 165.207 361.023 165.431 361.621 165.748V164.18C361.621 163.247 361.35 162.547 360.809 162.08C360.286 161.613 359.483 161.38 358.401 161.38C357.822 161.38 357.197 161.473 356.525 161.66C355.871 161.828 355.134 162.099 354.313 162.472L353.193 160.176C355.246 159.224 357.187 158.748 359.017 158.748C360.846 158.748 362.255 159.196 363.245 160.092C364.253 160.969 364.757 162.22 364.757 163.844V173H361.621V171.544C361.023 172.123 360.379 172.552 359.689 172.832C358.998 173.112 358.251 173.252 357.449 173.252ZM355.433 168.912C355.433 169.565 355.694 170.079 356.217 170.452C356.739 170.825 357.439 171.012 358.317 171.012C358.951 171.012 359.539 170.919 360.081 170.732C360.641 170.527 361.154 170.228 361.621 169.836V167.568C361.135 167.344 360.631 167.176 360.109 167.064C359.586 166.952 359.017 166.896 358.401 166.896C357.486 166.896 356.758 167.073 356.217 167.428C355.694 167.783 355.433 168.277 355.433 168.912ZM384.844 173.28C383.426 173.28 382.352 172.953 381.624 172.3C380.896 171.628 380.532 170.648 380.532 169.36V161.492H377.732V158.972H380.532V155.108L383.696 154.436V158.972H387.588V161.492H383.696V168.66C383.696 169.351 383.846 169.845 384.144 170.144C384.443 170.424 384.947 170.564 385.656 170.564C385.974 170.564 386.263 170.545 386.524 170.508C386.804 170.452 387.15 170.359 387.56 170.228V172.888C387.168 173.019 386.72 173.112 386.216 173.168C385.731 173.243 385.274 173.28 384.844 173.28ZM396.606 173.252C395.635 173.252 394.767 173.075 394.002 172.72C393.255 172.347 392.667 171.843 392.238 171.208C391.827 170.555 391.622 169.808 391.622 168.968C391.622 168.128 391.837 167.4 392.266 166.784C392.714 166.168 393.339 165.692 394.142 165.356C394.945 165.02 395.897 164.852 396.998 164.852C397.651 164.852 398.295 164.927 398.93 165.076C399.565 165.207 400.181 165.431 400.778 165.748V164.18C400.778 163.247 400.507 162.547 399.966 162.08C399.443 161.613 398.641 161.38 397.558 161.38C396.979 161.38 396.354 161.473 395.682 161.66C395.029 161.828 394.291 162.099 393.47 162.472L392.35 160.176C394.403 159.224 396.345 158.748 398.174 158.748C400.003 158.748 401.413 159.196 402.402 160.092C403.41 160.969 403.914 162.22 403.914 163.844V173H400.778V171.544C400.181 172.123 399.537 172.552 398.846 172.832C398.155 173.112 397.409 173.252 396.606 173.252ZM394.59 168.912C394.59 169.565 394.851 170.079 395.374 170.452C395.897 170.825 396.597 171.012 397.474 171.012C398.109 171.012 398.697 170.919 399.238 170.732C399.798 170.527 400.311 170.228 400.778 169.836V167.568C400.293 167.344 399.789 167.176 399.266 167.064C398.743 166.952 398.174 166.896 397.558 166.896C396.643 166.896 395.915 167.073 395.374 167.428C394.851 167.783 394.59 168.277 394.59 168.912ZM414.465 173.28C413.27 173.28 412.15 173.121 411.105 172.804C410.078 172.468 409.191 171.992 408.445 171.376L409.929 169.276C410.862 169.855 411.665 170.265 412.337 170.508C413.027 170.751 413.727 170.872 414.437 170.872C415.277 170.872 415.958 170.695 416.481 170.34C417.003 169.985 417.265 169.528 417.265 168.968C417.265 168.539 417.106 168.203 416.789 167.96C416.49 167.699 415.995 167.503 415.305 167.372L412.841 166.952C411.478 166.691 410.461 166.243 409.789 165.608C409.117 164.973 408.781 164.133 408.781 163.088C408.781 162.211 409.005 161.455 409.453 160.82C409.919 160.167 410.554 159.663 411.357 159.308C412.178 158.935 413.13 158.748 414.213 158.748C415.183 158.748 416.126 158.888 417.041 159.168C417.955 159.448 418.851 159.868 419.729 160.428L418.245 162.528C417.535 162.061 416.826 161.725 416.117 161.52C415.426 161.296 414.726 161.184 414.017 161.184C413.289 161.184 412.701 161.333 412.253 161.632C411.823 161.912 411.609 162.304 411.609 162.808C411.609 163.256 411.749 163.601 412.029 163.844C412.327 164.068 412.841 164.236 413.569 164.348L416.061 164.824C417.461 165.067 418.497 165.515 419.169 166.168C419.859 166.803 420.205 167.652 420.205 168.716C420.205 169.575 419.953 170.349 419.449 171.04C418.945 171.731 418.263 172.281 417.405 172.692C416.546 173.084 415.566 173.28 414.465 173.28ZM430.838 173.28C429.419 173.28 428.346 172.953 427.618 172.3C426.89 171.628 426.526 170.648 426.526 169.36V161.492H423.726V158.972H426.526V155.108L429.69 154.436V158.972H433.582V161.492H429.69V168.66C429.69 169.351 429.839 169.845 430.138 170.144C430.436 170.424 430.94 170.564 431.65 170.564C431.967 170.564 432.256 170.545 432.518 170.508C432.798 170.452 433.143 170.359 433.554 170.228V172.888C433.162 173.019 432.714 173.112 432.21 173.168C431.724 173.243 431.267 173.28 430.838 173.28ZM444.649 173.28C443.305 173.28 442.091 172.963 441.009 172.328C439.926 171.675 439.067 170.807 438.433 169.724C437.798 168.623 437.481 167.381 437.481 166C437.481 164.619 437.779 163.387 438.377 162.304C438.974 161.221 439.786 160.363 440.813 159.728C441.858 159.075 443.015 158.748 444.285 158.748C445.591 158.748 446.739 159.065 447.729 159.7C448.737 160.335 449.521 161.193 450.081 162.276C450.659 163.359 450.949 164.6 450.949 166V166.756H440.589C440.701 167.521 440.943 168.203 441.317 168.8C441.709 169.379 442.203 169.836 442.801 170.172C443.417 170.508 444.079 170.676 444.789 170.676C445.442 170.676 446.058 170.564 446.637 170.34C447.234 170.097 447.729 169.771 448.121 169.36L450.193 171.236C449.334 171.945 448.457 172.468 447.561 172.804C446.683 173.121 445.713 173.28 444.649 173.28ZM440.617 164.796H447.953C447.841 164.124 447.607 163.527 447.253 163.004C446.917 162.481 446.487 162.071 445.965 161.772C445.461 161.473 444.901 161.324 444.285 161.324C443.669 161.324 443.099 161.473 442.577 161.772C442.073 162.052 441.653 162.453 441.317 162.976C440.981 163.499 440.747 164.105 440.617 164.796ZM469.144 173.28C467.95 173.28 466.83 173.121 465.784 172.804C464.758 172.468 463.871 171.992 463.124 171.376L464.608 169.276C465.542 169.855 466.344 170.265 467.016 170.508C467.707 170.751 468.407 170.872 469.116 170.872C469.956 170.872 470.638 170.695 471.16 170.34C471.683 169.985 471.944 169.528 471.944 168.968C471.944 168.539 471.786 168.203 471.468 167.96C471.17 167.699 470.675 167.503 469.984 167.372L467.52 166.952C466.158 166.691 465.14 166.243 464.468 165.608C463.796 164.973 463.46 164.133 463.46 163.088C463.46 162.211 463.684 161.455 464.132 160.82C464.599 160.167 465.234 159.663 466.036 159.308C466.858 158.935 467.81 158.748 468.892 158.748C469.863 158.748 470.806 158.888 471.72 159.168C472.635 159.448 473.531 159.868 474.408 160.428L472.924 162.528C472.215 162.061 471.506 161.725 470.796 161.52C470.106 161.296 469.406 161.184 468.696 161.184C467.968 161.184 467.38 161.333 466.932 161.632C466.503 161.912 466.288 162.304 466.288 162.808C466.288 163.256 466.428 163.601 466.708 163.844C467.007 164.068 467.52 164.236 468.248 164.348L470.74 164.824C472.14 165.067 473.176 165.515 473.848 166.168C474.539 166.803 474.884 167.652 474.884 168.716C474.884 169.575 474.632 170.349 474.128 171.04C473.624 171.731 472.943 172.281 472.084 172.692C471.226 173.084 470.246 173.28 469.144 173.28ZM486.404 173.28C485.06 173.28 483.846 172.963 482.764 172.328C481.681 171.675 480.822 170.807 480.188 169.724C479.553 168.623 479.236 167.381 479.236 166C479.236 164.619 479.534 163.387 480.132 162.304C480.729 161.221 481.541 160.363 482.568 159.728C483.613 159.075 484.77 158.748 486.04 158.748C487.346 158.748 488.494 159.065 489.484 159.7C490.492 160.335 491.276 161.193 491.836 162.276C492.414 163.359 492.704 164.6 492.704 166V166.756H482.344C482.456 167.521 482.698 168.203 483.072 168.8C483.464 169.379 483.958 169.836 484.556 170.172C485.172 170.508 485.834 170.676 486.544 170.676C487.197 170.676 487.813 170.564 488.392 170.34C488.989 170.097 489.484 169.771 489.876 169.36L491.948 171.236C491.089 171.945 490.212 172.468 489.316 172.804C488.438 173.121 487.468 173.28 486.404 173.28ZM482.372 164.796H489.708C489.596 164.124 489.362 163.527 489.008 163.004C488.672 162.481 488.242 162.071 487.72 161.772C487.216 161.473 486.656 161.324 486.04 161.324C485.424 161.324 484.854 161.473 484.332 161.772C483.828 162.052 483.408 162.453 483.072 162.976C482.736 163.499 482.502 164.105 482.372 164.796ZM497.89 173V158.972H501.054V161.268C501.596 160.428 502.24 159.803 502.986 159.392C503.733 158.963 504.564 158.748 505.478 158.748C506.449 158.748 507.298 158.963 508.026 159.392C508.754 159.803 509.324 160.381 509.734 161.128C510.164 161.875 510.378 162.752 510.378 163.76V173H507.186V164.656C507.186 163.629 506.906 162.817 506.346 162.22C505.786 161.604 505.04 161.296 504.106 161.296C503.472 161.296 502.893 161.445 502.37 161.744C501.866 162.024 501.428 162.444 501.054 163.004V173H497.89ZM520.907 173.28C519.713 173.28 518.593 173.121 517.547 172.804C516.521 172.468 515.634 171.992 514.887 171.376L516.371 169.276C517.305 169.855 518.107 170.265 518.779 170.508C519.47 170.751 520.17 170.872 520.879 170.872C521.719 170.872 522.401 170.695 522.923 170.34C523.446 169.985 523.707 169.528 523.707 168.968C523.707 168.539 523.549 168.203 523.231 167.96C522.933 167.699 522.438 167.503 521.747 167.372L519.283 166.952C517.921 166.691 516.903 166.243 516.231 165.608C515.559 164.973 515.223 164.133 515.223 163.088C515.223 162.211 515.447 161.455 515.895 160.82C516.362 160.167 516.997 159.663 517.799 159.308C518.621 158.935 519.573 158.748 520.655 158.748C521.626 158.748 522.569 158.888 523.483 159.168C524.398 159.448 525.294 159.868 526.171 160.428L524.687 162.528C523.978 162.061 523.269 161.725 522.559 161.52C521.869 161.296 521.169 161.184 520.459 161.184C519.731 161.184 519.143 161.333 518.695 161.632C518.266 161.912 518.051 162.304 518.051 162.808C518.051 163.256 518.191 163.601 518.471 163.844C518.77 164.068 519.283 164.236 520.011 164.348L522.503 164.824C523.903 165.067 524.939 165.515 525.611 166.168C526.302 166.803 526.647 167.652 526.647 168.716C526.647 169.575 526.395 170.349 525.891 171.04C525.387 171.731 524.706 172.281 523.847 172.692C522.989 173.084 522.009 173.28 520.907 173.28ZM535.898 173.252C534.928 173.252 534.06 173.075 533.294 172.72C532.548 172.347 531.96 171.843 531.53 171.208C531.12 170.555 530.914 169.808 530.914 168.968C530.914 168.128 531.129 167.4 531.558 166.784C532.006 166.168 532.632 165.692 533.434 165.356C534.237 165.02 535.189 164.852 536.29 164.852C536.944 164.852 537.588 164.927 538.222 165.076C538.857 165.207 539.473 165.431 540.07 165.748V164.18C540.07 163.247 539.8 162.547 539.258 162.08C538.736 161.613 537.933 161.38 536.85 161.38C536.272 161.38 535.646 161.473 534.974 161.66C534.321 161.828 533.584 162.099 532.762 162.472L531.642 160.176C533.696 159.224 535.637 158.748 537.466 158.748C539.296 158.748 540.705 159.196 541.694 160.092C542.702 160.969 543.206 162.22 543.206 163.844V173H540.07V171.544C539.473 172.123 538.829 172.552 538.138 172.832C537.448 173.112 536.701 173.252 535.898 173.252ZM533.882 168.912C533.882 169.565 534.144 170.079 534.666 170.452C535.189 170.825 535.889 171.012 536.766 171.012C537.401 171.012 537.989 170.919 538.53 170.732C539.09 170.527 539.604 170.228 540.07 169.836V167.568C539.585 167.344 539.081 167.176 538.558 167.064C538.036 166.952 537.466 166.896 536.85 166.896C535.936 166.896 535.208 167.073 534.666 167.428C534.144 167.783 533.882 168.277 533.882 168.912ZM554.635 173.28C553.216 173.28 552.143 172.953 551.415 172.3C550.687 171.628 550.323 170.648 550.323 169.36V161.492H547.523V158.972H550.323V155.108L553.487 154.436V158.972H557.379V161.492H553.487V168.66C553.487 169.351 553.636 169.845 553.935 170.144C554.233 170.424 554.737 170.564 555.447 170.564C555.764 170.564 556.053 170.545 556.315 170.508C556.595 170.452 556.94 170.359 557.351 170.228V172.888C556.959 173.019 556.511 173.112 556.007 173.168C555.521 173.243 555.064 173.28 554.635 173.28ZM562.113 173V158.972H565.277V173H562.113ZM563.709 156.116C563.167 156.116 562.701 155.929 562.309 155.556C561.935 155.164 561.749 154.707 561.749 154.184C561.749 153.643 561.935 153.185 562.309 152.812C562.701 152.42 563.167 152.224 563.709 152.224C564.25 152.224 564.707 152.42 565.081 152.812C565.473 153.185 565.669 153.633 565.669 154.156C565.669 154.697 565.473 155.164 565.081 155.556C564.707 155.929 564.25 156.116 563.709 156.116ZM577.567 173.252C576.242 173.252 575.038 172.935 573.955 172.3C572.891 171.665 572.051 170.807 571.435 169.724C570.819 168.623 570.511 167.381 570.511 166C570.511 164.619 570.819 163.387 571.435 162.304C572.051 161.203 572.891 160.335 573.955 159.7C575.019 159.065 576.223 158.748 577.567 158.748C578.911 158.748 580.106 159.065 581.151 159.7C582.215 160.335 583.055 161.203 583.671 162.304C584.287 163.387 584.595 164.619 584.595 166C584.595 167.381 584.287 168.623 583.671 169.724C583.055 170.807 582.215 171.665 581.151 172.3C580.106 172.935 578.911 173.252 577.567 173.252ZM577.567 170.564C578.333 170.564 579.005 170.368 579.583 169.976C580.181 169.584 580.647 169.043 580.983 168.352C581.319 167.643 581.487 166.859 581.487 166C581.487 165.123 581.319 164.348 580.983 163.676C580.647 162.985 580.181 162.444 579.583 162.052C579.005 161.641 578.333 161.436 577.567 161.436C576.802 161.436 576.121 161.641 575.523 162.052C574.926 162.444 574.459 162.985 574.123 163.676C573.787 164.348 573.619 165.123 573.619 166C573.619 166.877 573.787 167.661 574.123 168.352C574.459 169.043 574.926 169.584 575.523 169.976C576.121 170.368 576.802 170.564 577.567 170.564ZM589.822 173V158.972H592.986V161.268C593.528 160.428 594.172 159.803 594.918 159.392C595.665 158.963 596.496 158.748 597.41 158.748C598.381 158.748 599.23 158.963 599.958 159.392C600.686 159.803 601.256 160.381 601.666 161.128C602.096 161.875 602.31 162.752 602.31 163.76V173H599.118V164.656C599.118 163.629 598.838 162.817 598.278 162.22C597.718 161.604 596.972 161.296 596.038 161.296C595.404 161.296 594.825 161.445 594.302 161.744C593.798 162.024 593.36 162.444 592.986 163.004V173H589.822ZM608.387 166.98L607.995 152.644H611.131L610.739 166.98H608.387ZM609.563 173.252C609.022 173.252 608.564 173.065 608.191 172.692C607.818 172.3 607.631 171.833 607.631 171.292C607.631 170.751 607.818 170.293 608.191 169.92C608.583 169.528 609.04 169.332 609.563 169.332C610.104 169.332 610.562 169.528 610.935 169.92C611.308 170.293 611.495 170.751 611.495 171.292C611.495 171.833 611.308 172.3 610.935 172.692C610.562 173.065 610.104 173.252 609.563 173.252Z" fill="#FBFBFB"/>
<rect x="235.5" y="266" width="219" height="56" rx="28" fill="#B67B0F"/>
<path d="M299.62 301.22C298.633 301.22 297.707 301.04 296.84 300.68C295.987 300.307 295.233 299.793 294.58 299.14C293.94 298.473 293.44 297.707 293.08 296.84C292.72 295.96 292.54 295.013 292.54 294C292.54 292.987 292.72 292.047 293.08 291.18C293.44 290.3 293.94 289.533 294.58 288.88C295.233 288.213 295.987 287.7 296.84 287.34C297.707 286.967 298.633 286.78 299.62 286.78C300.607 286.78 301.527 286.967 302.38 287.34C303.247 287.7 304 288.213 304.64 288.88C305.293 289.533 305.8 290.3 306.16 291.18C306.52 292.047 306.7 292.987 306.7 294C306.7 295.013 306.52 295.96 306.16 296.84C305.8 297.707 305.293 298.473 304.64 299.14C304 299.793 303.247 300.307 302.38 300.68C301.527 301.04 300.607 301.22 299.62 301.22ZM299.62 299.06C300.273 299.06 300.88 298.933 301.44 298.68C302 298.427 302.487 298.073 302.9 297.62C303.327 297.153 303.653 296.613 303.88 296C304.12 295.387 304.24 294.72 304.24 294C304.24 293.28 304.12 292.613 303.88 292C303.653 291.387 303.327 290.853 302.9 290.4C302.487 289.933 302 289.573 301.44 289.32C300.88 289.067 300.273 288.94 299.62 288.94C298.967 288.94 298.36 289.067 297.8 289.32C297.24 289.573 296.747 289.933 296.32 290.4C295.893 290.853 295.56 291.387 295.32 292C295.093 292.613 294.98 293.28 294.98 294C294.98 294.72 295.093 295.387 295.32 296C295.56 296.613 295.893 297.153 296.32 297.62C296.747 298.073 297.24 298.427 297.8 298.68C298.36 298.933 298.967 299.06 299.62 299.06ZM309.13 301V290.98H311.39V293.14C311.684 292.38 312.064 291.8 312.53 291.4C312.997 291 313.537 290.8 314.15 290.8C314.337 290.813 314.504 290.833 314.65 290.86C314.797 290.873 314.957 290.92 315.13 291V292.98C314.957 292.9 314.757 292.84 314.53 292.8C314.317 292.76 314.104 292.74 313.89 292.74C313.344 292.74 312.85 292.887 312.41 293.18C311.984 293.473 311.644 293.88 311.39 294.4V301H309.13ZM320.573 301.1C319.733 301.1 318.973 300.873 318.293 300.42C317.613 299.953 317.067 299.34 316.653 298.58C316.253 297.807 316.053 296.947 316.053 296C316.053 295.04 316.26 294.18 316.673 293.42C317.087 292.647 317.647 292.033 318.353 291.58C319.073 291.127 319.867 290.9 320.733 290.9C321.307 290.9 321.84 291.013 322.333 291.24C322.84 291.453 323.28 291.773 323.653 292.2V286.66L325.913 286.26V301H323.673V299.68C323.313 300.133 322.867 300.487 322.333 300.74C321.8 300.98 321.213 301.1 320.573 301.1ZM321.273 299.2C321.753 299.2 322.2 299.107 322.613 298.92C323.027 298.72 323.373 298.447 323.653 298.1V293.88C323.36 293.533 323.007 293.267 322.593 293.08C322.18 292.893 321.74 292.8 321.273 292.8C320.7 292.8 320.187 292.94 319.733 293.22C319.293 293.487 318.94 293.86 318.673 294.34C318.407 294.82 318.273 295.373 318.273 296C318.273 296.6 318.407 297.147 318.673 297.64C318.94 298.12 319.293 298.5 319.733 298.78C320.187 299.06 320.7 299.2 321.273 299.2ZM333.38 301.2C332.42 301.2 331.554 300.973 330.78 300.52C330.007 300.053 329.394 299.433 328.94 298.66C328.487 297.873 328.26 296.987 328.26 296C328.26 295.013 328.474 294.133 328.9 293.36C329.327 292.587 329.907 291.973 330.64 291.52C331.387 291.053 332.214 290.82 333.12 290.82C334.054 290.82 334.874 291.047 335.58 291.5C336.3 291.953 336.86 292.567 337.26 293.34C337.674 294.113 337.88 295 337.88 296V296.54H330.48C330.56 297.087 330.734 297.573 331 298C331.28 298.413 331.634 298.74 332.06 298.98C332.5 299.22 332.974 299.34 333.48 299.34C333.947 299.34 334.387 299.26 334.8 299.1C335.227 298.927 335.58 298.693 335.86 298.4L337.34 299.74C336.727 300.247 336.1 300.62 335.46 300.86C334.834 301.087 334.14 301.2 333.38 301.2ZM330.5 295.14H335.74C335.66 294.66 335.494 294.233 335.24 293.86C335 293.487 334.694 293.193 334.32 292.98C333.96 292.767 333.56 292.66 333.12 292.66C332.68 292.66 332.274 292.767 331.9 292.98C331.54 293.18 331.24 293.467 331 293.84C330.76 294.213 330.594 294.647 330.5 295.14ZM340.185 301V290.98H342.445V293.14C342.738 292.38 343.118 291.8 343.585 291.4C344.052 291 344.592 290.8 345.205 290.8C345.392 290.813 345.558 290.833 345.705 290.86C345.852 290.873 346.012 290.92 346.185 291V292.98C346.012 292.9 345.812 292.84 345.585 292.8C345.372 292.76 345.158 292.74 344.945 292.74C344.398 292.74 343.905 292.887 343.465 293.18C343.038 293.473 342.698 293.88 342.445 294.4V301H340.185ZM352.809 301V287H355.149L362.449 297.18L362.409 287H364.669V301H362.529L355.029 290.54L355.069 301H352.809ZM372.324 301.18C371.377 301.18 370.517 300.953 369.744 300.5C368.984 300.047 368.384 299.433 367.944 298.66C367.504 297.873 367.284 296.987 367.284 296C367.284 295.013 367.504 294.133 367.944 293.36C368.384 292.573 368.984 291.953 369.744 291.5C370.504 291.047 371.364 290.82 372.324 290.82C373.284 290.82 374.137 291.047 374.884 291.5C375.644 291.953 376.244 292.573 376.684 293.36C377.124 294.133 377.344 295.013 377.344 296C377.344 296.987 377.124 297.873 376.684 298.66C376.244 299.433 375.644 300.047 374.884 300.5C374.137 300.953 373.284 301.18 372.324 301.18ZM372.324 299.26C372.87 299.26 373.35 299.12 373.764 298.84C374.19 298.56 374.524 298.173 374.764 297.68C375.004 297.173 375.124 296.613 375.124 296C375.124 295.373 375.004 294.82 374.764 294.34C374.524 293.847 374.19 293.46 373.764 293.18C373.35 292.887 372.87 292.74 372.324 292.74C371.777 292.74 371.29 292.887 370.864 293.18C370.437 293.46 370.104 293.847 369.864 294.34C369.624 294.82 369.504 295.373 369.504 296C369.504 296.627 369.624 297.187 369.864 297.68C370.104 298.173 370.437 298.56 370.864 298.84C371.29 299.12 371.777 299.26 372.324 299.26ZM381.242 301L378.542 290.98H380.702L382.462 298.04L384.542 290.98H386.442L388.502 298.04L390.262 290.98H392.362L389.662 301H387.502L385.462 293.94L383.442 301H381.242ZM394.429 296.7L394.149 286.46H396.389L396.109 296.7H394.429ZM395.269 301.18C394.882 301.18 394.555 301.047 394.289 300.78C394.022 300.5 393.889 300.167 393.889 299.78C393.889 299.393 394.022 299.067 394.289 298.8C394.569 298.52 394.895 298.38 395.269 298.38C395.655 298.38 395.982 298.52 396.249 298.8C396.515 299.067 396.649 299.393 396.649 299.78C396.649 300.167 396.515 300.5 396.249 300.78C395.982 301.047 395.655 301.18 395.269 301.18Z" fill="white"/>
<rect x="466.5" y="266" width="142" height="56" rx="28" fill="#FBFBFB"/>
<path d="M492.06 301L486.62 287H489.2L493.5 298.56L497.84 287H500.32L494.84 301H492.06ZM501.825 301V290.98H504.085V301H501.825ZM502.965 288.94C502.579 288.94 502.245 288.807 501.965 288.54C501.699 288.26 501.565 287.933 501.565 287.56C501.565 287.173 501.699 286.847 501.965 286.58C502.245 286.3 502.579 286.16 502.965 286.16C503.352 286.16 503.679 286.3 503.945 286.58C504.225 286.847 504.365 287.167 504.365 287.54C504.365 287.927 504.225 288.26 503.945 288.54C503.679 288.807 503.352 288.94 502.965 288.94ZM511.544 301.2C510.584 301.2 509.718 300.973 508.944 300.52C508.171 300.053 507.558 299.433 507.104 298.66C506.651 297.873 506.424 296.987 506.424 296C506.424 295.013 506.638 294.133 507.064 293.36C507.491 292.587 508.071 291.973 508.804 291.52C509.551 291.053 510.378 290.82 511.284 290.82C512.218 290.82 513.038 291.047 513.744 291.5C514.464 291.953 515.024 292.567 515.424 293.34C515.838 294.113 516.044 295 516.044 296V296.54H508.644C508.724 297.087 508.898 297.573 509.164 298C509.444 298.413 509.798 298.74 510.224 298.98C510.664 299.22 511.138 299.34 511.644 299.34C512.111 299.34 512.551 299.26 512.964 299.1C513.391 298.927 513.744 298.693 514.024 298.4L515.504 299.74C514.891 300.247 514.264 300.62 513.624 300.86C512.998 301.087 512.304 301.2 511.544 301.2ZM508.664 295.14H513.904C513.824 294.66 513.658 294.233 513.404 293.86C513.164 293.487 512.858 293.193 512.484 292.98C512.124 292.767 511.724 292.66 511.284 292.66C510.844 292.66 510.438 292.767 510.064 292.98C509.704 293.18 509.404 293.467 509.164 293.84C508.924 294.213 508.758 294.647 508.664 295.14ZM519.914 301L517.214 290.98H519.374L521.134 298.04L523.214 290.98H525.114L527.174 298.04L528.934 290.98H531.034L528.334 301H526.174L524.134 293.94L522.114 301H519.914ZM537.653 301V287H540.773L544.873 295.5L548.953 287H552.073V301H549.813V290.04L544.853 300L539.873 289.98V301H537.653ZM559.806 301.2C558.846 301.2 557.979 300.973 557.206 300.52C556.433 300.053 555.819 299.433 555.366 298.66C554.913 297.873 554.686 296.987 554.686 296C554.686 295.013 554.899 294.133 555.326 293.36C555.753 292.587 556.333 291.973 557.066 291.52C557.813 291.053 558.639 290.82 559.546 290.82C560.479 290.82 561.299 291.047 562.006 291.5C562.726 291.953 563.286 292.567 563.686 293.34C564.099 294.113 564.306 295 564.306 296V296.54H556.906C556.986 297.087 557.159 297.573 557.426 298C557.706 298.413 558.059 298.74 558.486 298.98C558.926 299.22 559.399 299.34 559.906 299.34C560.373 299.34 560.813 299.26 561.226 299.1C561.653 298.927 562.006 298.693 562.286 298.4L563.766 299.74C563.153 300.247 562.526 300.62 561.886 300.86C561.259 301.087 560.566 301.2 559.806 301.2ZM556.926 295.14H562.166C562.086 294.66 561.919 294.233 561.666 293.86C561.426 293.487 561.119 293.193 560.746 292.98C560.386 292.767 559.986 292.66 559.546 292.66C559.106 292.66 558.699 292.767 558.326 292.98C557.966 293.18 557.666 293.467 557.426 293.84C557.186 294.213 557.019 294.647 556.926 295.14ZM566.611 301V290.98H568.871V292.62C569.258 292.02 569.718 291.573 570.251 291.28C570.784 290.973 571.378 290.82 572.031 290.82C572.724 290.82 573.331 290.973 573.851 291.28C574.371 291.573 574.778 291.987 575.071 292.52C575.378 293.053 575.531 293.68 575.531 294.4V301H573.251V295.04C573.251 294.307 573.051 293.727 572.651 293.3C572.251 292.86 571.718 292.64 571.051 292.64C570.598 292.64 570.184 292.747 569.811 292.96C569.451 293.16 569.138 293.46 568.871 293.86V301H566.611ZM581.574 301.16C580.881 301.16 580.274 301.007 579.754 300.7C579.234 300.393 578.821 299.973 578.514 299.44C578.221 298.907 578.074 298.287 578.074 297.58V290.98H580.354V296.92C580.354 297.667 580.547 298.26 580.934 298.7C581.334 299.127 581.874 299.34 582.554 299.34C583.007 299.34 583.414 299.24 583.774 299.04C584.147 298.84 584.467 298.54 584.734 298.14V290.98H586.994V301H584.734V299.38C584.347 299.967 583.887 300.413 583.354 300.72C582.821 301.013 582.227 301.16 581.574 301.16Z" fill="#100101"/>
</svg>
